<svg id="svg" version="1.1" viewBox="0 0 300 300" width="300" height="300" xmlns="http://www.w3.org/2000/svg"><svg xmlns="http://www.w3.org/2000/svg"><defs><clipPath id="clip-1"><rect x="0" y="0" transform="scale(0.14648,0.14648)" width="2048" height="2048" fill="none"/></clipPath><linearGradient x1="85.56592" y1="180.10254" x2="152.14893" y2="107.77163" gradientUnits="userSpaceOnUse" id="color-1"><stop offset="0" stop-color="#1a44ae"/><stop offset="1" stop-color="#3a8ccb"/></linearGradient><linearGradient x1="191.94434" y1="181.6626" x2="173.0625" y2="187.22021" gradientUnits="userSpaceOnUse" id="color-2"><stop offset="0" stop-color="#2eac5e"/><stop offset="1" stop-color="#167c98"/></linearGradient><linearGradient x1="204.69727" y1="108.42144" x2="214.91309" y2="96.08599" gradientUnits="userSpaceOnUse" id="color-3"><stop offset="0" stop-color="#57c183"/><stop offset="1" stop-color="#4ac6b0"/></linearGradient></defs><g clip-path="url(#clip-1)" fill="none" fill-rule="nonzero" stroke="none" stroke-width="1" stroke-linecap="butt" stroke-linejoin="miter" stroke-miterlimit="10" stroke-dasharray="" stroke-dashoffset="0" font-family="none" font-weight="none" font-size="none" text-anchor="none" style="mix-blend-mode: normal"><path d="M0,0h300v300h-300z" fill="#ffffff"/><path d="M144.7689,72.65713c2.94888,-5.97114 11.56069,-8.48994 17.45376,-5.54751c1.88232,0.95977 3.52881,2.32368 4.82373,3.99419c1.56152,2.04463 2.83447,4.9875 3.99756,7.31104c1.37842,2.75566 3.01904,5.53169 4.31543,8.30962c1.31689,2.82393 3.92139,6.81255 5.0332,9.57407l17.30859,32.7709c1.5498,2.86802 3.31055,6.51226 4.8999,9.22559c-16.09717,9.14883 -33.07617,16.64736 -50.68066,22.38369c-1.5293,0.50098 -6.89414,2.34668 -8.16006,2.48438c9.5751,-4.83984 24.40225,-10.77686 32.02383,-18.24741c-5.20459,-9.6479 -10.28906,-19.35908 -15.25635,-29.13135c-1.15137,-2.27461 -2.50635,-4.59053 -3.58887,-6.8395c-0.68115,1.31997 -1.69336,3.42158 -2.43457,4.63154c-0.25049,0.07119 -0.30469,0.17124 -0.57422,0.26572c0.0249,-0.17505 0.04541,-0.35083 0.06006,-0.52705c0.04102,-0.49863 -1.81055,-4.17583 -2.02734,-4.22959c-1.75781,-0.43433 -2.4082,-2.24722 -3.6167,-3.66914l-0.28711,0.04277c-0.90234,-0.33428 -1.87017,-3.2499 -2.60947,-3.86279c-0.85723,-0.71045 -2.38257,-1.27002 -3.30352,-1.99951c-0.78384,-0.62095 -1.64692,-1.15796 -2.44395,-1.76382c-0.49028,-0.37266 -0.87363,0.51694 -1.36729,0.19819c-0.52104,-0.26133 -1.28936,-0.93457 -1.80542,-1.00811c-0.34995,-0.04995 -0.42363,0.5521 -1.06919,0.41396c-0.73462,-0.15718 -2.43472,-0.22192 -2.91387,-0.76816c0.13506,-0.39097 0.2439,-0.62314 0.20024,-1.0481c1.20908,-2.74937 3.28081,-6.20391 4.71226,-8.93774l4.86665,-9.20889c0.82266,-1.58467 1.58657,-3.2644 2.44336,-4.81699z" fill="#339dcf"/><path d="M144.7689,72.65713c2.94888,-5.97114 11.56069,-8.48994 17.45376,-5.54751c1.88232,0.95977 3.52881,2.32368 4.82373,3.99419c1.56152,2.04463 2.83447,4.9875 3.99756,7.31104c1.37842,2.75566 3.01904,5.53169 4.31543,8.30962c1.31689,2.82393 3.92139,6.81255 5.0332,9.57407l-0.18896,0.06826c-2.96045,-5.22744 -5.62646,-10.78418 -8.47559,-16.10464c-1.69629,-3.16831 -3.26074,-7.0418 -5.56055,-9.81094c-0.78809,-0.94893 -1.25977,-0.47021 -2.50781,-0.60732c-1.21875,-0.13418 -2.69238,-0.37676 -3.25928,-1.65381c-0.22119,-0.49863 -0.34717,-1.00459 -0.68701,-1.38794c-0.23291,0.17476 -0.10986,0.14282 -0.35156,0.1415l-0.07324,-0.23232l0.25635,-0.23394c-0.26221,-0.33003 -0.73975,-0.42627 -1.14697,-0.4333c-3.95361,-0.05962 -8.22217,0.90381 -11.10937,3.76963c-0.79248,0.78706 -1.79941,2.29995 -2.51968,2.84341z" fill="#48beeb"/><path d="M213.0835,140.70088c2.11816,-0.05845 10.36084,-7.15342 12.70459,-8.27871c0.41455,-0.19922 2.84033,1.1918 3.4834,0.952c0.78076,-0.02813 2.39063,0.3082 3.0498,1.11372c1.08984,1.33403 2.06396,6.42129 1.875,8.01299l-0.10986,0.88462c1.02539,-0.44897 1.14844,-1.42852 2.50488,-1.81655c-4.02832,3.90659 -9.1377,7.83193 -13.72998,11.11025c-0.96973,0.69141 -2.75244,1.979 -3.74707,2.52393c-0.01611,0.01318 -0.03223,0.02637 -0.04834,0.04102c-36.36035,24.17725 -99.5748,47.42725 -142.09072,41.40088c3.07837,-4.2627 2.01108,-9.479 -1.36978,-13.21436c22.62173,1.81055 48.54434,-5.09766 69.94937,-12.15527c14.68447,-4.81934 29.05459,-10.54834 43.02627,-17.15479c5.15625,-2.45801 10.22461,-5.0918 15.20068,-7.89697c3.16699,-1.79487 6.17578,-3.69053 9.30176,-5.52275z" fill="#30ab6b"/><path d="M234.08643,143.3855c1.02539,-0.44897 1.14844,-1.42852 2.50488,-1.81655c-4.02832,3.90659 -9.1377,7.83193 -13.72998,11.11025c-0.96973,0.69141 -2.75244,1.979 -3.74707,2.52393c0.69141,-1.47803 11.7334,-7.63623 12.53027,-10.39321c0.08643,-0.29897 1.01807,-1.19062 1.3418,-1.32026l0.47021,0.37969c0.46436,-0.0668 0.2373,0.01772 0.62988,-0.48384z" fill="#42c19f"/><path d="M92.87505,171.0791c2.7334,-5.41113 5.72681,-10.89697 8.54971,-16.27734l17.93408,-34.01074l8.13384,-15.40093c1.36479,-2.61694 3.73916,-7.42441 5.25396,-9.76934c0.04365,0.42495 -0.06519,0.65713 -0.20024,1.0481c0.47915,0.54624 2.17925,0.61099 2.91387,0.76816c0.64556,0.13813 0.71924,-0.46392 1.06919,-0.41396c0.51606,0.07354 1.28437,0.74678 1.80542,1.00811c0.49365,0.31875 0.877,-0.57085 1.36729,-0.19819c0.79702,0.60586 1.66011,1.14287 2.44395,1.76382c0.92095,0.72949 2.44629,1.28906 3.30352,1.99951c0.73931,0.61289 1.70713,3.52852 2.60947,3.86279l0.28711,-0.04277c1.2085,1.42192 1.85889,3.23481 3.6167,3.66914c0.2168,0.05376 2.06836,3.73096 2.02734,4.22959c-0.01465,0.17622 -0.03516,0.352 -0.06006,0.52705c0.26953,-0.09448 0.32373,-0.19453 0.57422,-0.26572c-1.37256,3.37954 -4.64648,9.32402 -6.41162,12.74004l-14.57783,28.23926c-2.25425,4.37256 -5.70425,10.44287 -7.51187,14.8623c-1.96904,0.66504 -4.63843,1.30225 -6.69038,1.84277c-9.67148,2.54443 -19.79429,4.21436 -29.78833,4.79443c-3.42832,0.19775 -6.99976,-0.05713 -10.44067,-0.05859c4.13555,-1.72705 9.50684,-2.89453 13.79136,-4.91748z" fill="url(#color-1)"/><path d="M161.08594,190.93799c1.47949,-0.62402 3.35303,-1.23779 4.89551,-1.8252c3.47314,-1.32422 6.92725,-2.69971 10.35938,-4.125c5.2998,-2.23242 10.54248,-4.93652 15.66211,-7.0708l0.01611,0.22559c-0.68848,0.7793 -0.23584,2.66455 0.20508,3.49072l-0.0293,0.15381c-1.73584,1.01807 -3.84814,1.93652 -5.69238,2.83301l-8.88281,4.40332l-10.4458,5.26904c-1.32715,0.66357 -3.4541,1.80029 -4.75781,2.34814c-1.49854,0.98291 -6.25635,3.10986 -8.12402,4.06494c-8.89043,4.44287 -17.81851,8.80957 -26.78306,13.10156l-27.09946,13.19385l-8.23652,4.02686c-1.94561,0.94336 -3.79585,1.88818 -5.83359,2.5752c-7.01572,2.34961 -16.0793,-0.14355 -18.36855,-7.84863c-1.49399,-5.02881 0.48853,-8.40381 2.82305,-12.68848c1.69673,-3.11426 3.41104,-6.25488 5.10894,-9.37354c3.51313,0.52881 7.26035,1.05322 10.81655,1.14697c24.91567,0.66357 50.97393,-5.95898 74.3666,-13.90137z" fill="#144da9"/><path d="M161.08594,190.93799c1.47949,-0.62402 3.35303,-1.23779 4.89551,-1.8252c3.47314,-1.32422 6.92725,-2.69971 10.35938,-4.125c5.2998,-2.23242 10.54248,-4.93652 15.66211,-7.0708l0.01611,0.22559c-0.68848,0.7793 -0.23584,2.66455 0.20508,3.49072l-0.0293,0.15381c-1.73584,1.01807 -3.84814,1.93652 -5.69238,2.83301l-8.88281,4.40332l-10.4458,5.26904c-1.32715,0.66357 -3.4541,1.80029 -4.75781,2.34814c0.4834,-1.08545 10.57617,-5.09326 12.36621,-6.58887c-0.28271,-0.33691 -0.61377,-0.64746 -0.92725,-0.95947c-0.03809,-0.2168 -0.10547,-0.51709 -0.25049,-0.67676c-0.5625,-0.62256 -0.38086,-1.04736 -0.60059,-1.70361c-2.31299,0.36475 -10.07959,4.54395 -11.91797,4.22607z" fill="url(#color-2)"/><path d="M229.4707,155.17822l0.10107,0.44385c-4.05615,4.55273 -8.79785,9.57861 -12.56836,14.26172l18.36475,33.81299l5.29102,9.75732c1.05176,1.91455 2.18115,3.88477 3.11865,5.85645c0.24023,0.50391 0.12598,1.10596 0.04102,1.65674c-0.86426,1.24805 -3.14062,1.11475 -4.51025,1.11182c-3.50098,-0.00586 -7.00635,-0.06006 -10.50732,-0.03223c-4.8501,-0.06152 -10.18799,0.72949 -14.41113,-2.2251c-4.13818,-3.06885 -6.92285,-9.3457 -9.31934,-13.83691l-7.05029,-13.19238l-3.90527,-7.24512c-0.44824,-0.8335 -1.6377,-2.97217 -1.92041,-3.76025l0.0293,-0.15381c-0.44092,-0.82617 -0.89355,-2.71143 -0.20508,-3.49072l-0.01611,-0.22559c0.39844,-0.29297 3.01904,-1.54834 3.59912,-1.83838c2.46973,-1.23193 4.92041,-2.49902 7.35205,-3.8042c8.12549,-4.36523 19.48535,-11.22217 26.5166,-17.09619z" fill="#75c946"/><path d="M102.77358,133.32949l-0.01538,0.2644c-9.99097,3.82397 -22.37549,13.5394 -30.5105,20.36118c-5.8689,4.92188 -16.36025,15.12744 -11.79653,23.37305c2.47061,4.46338 7.93799,3.59766 10.98882,6.51563c1.58804,1.51904 3.52808,6.5083 3.17358,8.78174c-0.6022,4.95996 -4.27676,7.94971 -9.32827,7.4165c-3.70664,-0.96533 -4.66377,-1.94385 -5.91958,-5.51514c-0.4166,-0.18018 -0.83145,-0.36475 -1.24424,-0.55371c-3.554,-1.63037 -6.48003,-4.45459 -7.82183,-8.14453c-1.60825,-4.42383 -0.78779,-10.08398 1.25288,-14.21631c7.91382,-16.02539 35.09282,-32.46167 51.22104,-38.28281z" fill="#339dcf"/><path d="M213.0835,140.70088c1.65674,-1.16528 3.45117,-2.09736 5.12988,-3.29238c7.83691,-5.57651 18.78809,-13.82388 21.01904,-23.59058c2.12549,-9.30337 -9.60645,-12.02944 -16.23047,-12.94424c-0.54492,-0.08994 -1.16455,-0.05332 -1.27002,-0.68862c0.48193,-0.50464 1.04443,-0.40327 1.78125,-0.42554c8.37744,-0.25342 17.3335,-0.01919 23.93701,5.9105c2.79199,2.50781 4.34473,6.15952 4.37988,9.90762c0.08789,9.26074 -7.11475,17.88149 -13.28467,24.16172c-0.49512,0.50449 -1.4209,1.48975 -1.9541,1.82959c-1.35645,0.38804 -1.47949,1.36758 -2.50488,1.81655l0.10986,-0.88462c0.18896,-1.5917 -0.78516,-6.67896 -1.875,-8.01299c-0.65918,-0.80552 -2.26904,-1.14185 -3.0498,-1.11372c-0.64307,0.23979 -3.06885,-1.15122 -3.4834,-0.952c-2.34375,1.12529 -10.58643,8.22026 -12.70459,8.27871z" fill="#43c0b4"/><path d="M208.30811,94.21421c4.51465,-0.87144 8.87549,2.10425 9.71045,6.62681c0.8335,4.52241 -2.17676,8.8582 -6.70605,9.65581c-4.47803,0.78838 -8.75244,-2.18071 -9.57715,-6.65127c-0.82471,-4.47056 2.10938,-8.77002 6.57275,-9.63135z" fill="url(#color-3)"/><path d="M229.4707,155.17822c0.5918,-0.53906 1.1748,-1.15723 1.88965,-1.47656l0.11279,0.04541c-0.58594,0.71338 -1.22021,1.25391 -1.90137,1.875z" fill="#b9d7be"/></g></svg></svg>